<svg width="391" height="72" viewBox="0 0 391 72" fill="none" xmlns="http://www.w3.org/2000/svg">
<path d="M54.3047 72C54.5714 73.0667 54.7047 74.4 54.7047 76C54.7047 77.5333 54.5714 78.8667 54.3047 80H26.3047C26.038 78.8667 25.9047 77.5333 25.9047 76C25.9047 74.4 26.038 73.0667 26.3047 72C26.038 70.8667 25.9047 69.5333 25.9047 68C25.9047 66.4 26.038 65.0667 26.3047 64C26.038 62.8667 25.9047 61.5333 25.9047 60C25.9047 58.4 26.038 57.0667 26.3047 56C26.038 54.8667 25.9047 53.5333 25.9047 52C25.9047 50.4 26.038 49.0667 26.3047 48C26.038 46.8667 25.9047 45.5333 25.9047 44C25.9047 42.4 26.038 41.0667 26.3047 40C26.038 38.8667 25.9047 37.5333 25.9047 36C25.9047 34.4 26.038 33.0667 26.3047 32C26.038 30.8667 25.9047 29.5333 25.9047 28C25.9047 26.4 26.038 25.0667 26.3047 24H34.3047C34.5714 25.0667 34.7047 26.4 34.7047 28C34.7047 29.5333 34.5714 30.8667 34.3047 32C34.5714 33.0667 34.7047 34.4 34.7047 36C34.7047 37.5333 34.5714 38.8667 34.3047 40C34.5714 41.0667 34.7047 42.4 34.7047 44C34.7047 45.5333 34.5714 46.8667 34.3047 48C34.5714 49.0667 34.7047 50.4 34.7047 52C34.7047 53.5333 34.5714 54.8667 34.3047 56C34.5714 57.0667 34.7047 58.4 34.7047 60C34.7047 61.5333 34.5714 62.8667 34.3047 64C34.5714 65.0667 34.7047 66.4 34.7047 68C34.7047 69.5333 34.5714 70.8667 34.3047 72H54.3047ZM73.7437 68C73.7437 69.5333 73.6104 70.8667 73.3438 72H83.3438C83.6104 73.0667 83.7438 74.4 83.7438 76C83.7438 77.5333 83.6104 78.8667 83.3438 80H67.3438C67.0771 78.8667 66.9438 77.5333 66.9438 76C66.9438 74.4 67.0771 73.0667 67.3438 72H62.3437C62.0771 70.8667 61.9437 69.5333 61.9437 68C61.9437 66.4 62.0771 65.0667 62.3437 64C62.0771 62.8667 61.9437 61.5333 61.9437 60C61.9437 58.4 62.0771 57.0667 62.3437 56C62.0771 54.8667 61.9437 53.5333 61.9437 52C61.9437 50.4 62.0771 49.0667 62.3437 48C62.0771 46.8667 61.9437 45.5333 61.9437 44C61.9437 42.4 62.0771 41.0667 62.3437 40H70.3437C70.6104 41.0667 70.7437 42.4 70.7437 44C70.7437 45.5333 70.6104 46.8667 70.3437 48C70.6104 49.0667 70.7437 50.4 70.7437 52C70.7437 53.5333 70.6104 54.8667 70.3437 56C70.6104 57.0667 70.7437 58.4 70.7437 60C70.7437 61.5333 70.6104 62.8667 70.3437 64H73.3438C73.6104 65.0667 73.7437 66.4 73.7437 68ZM94.3438 48C94.6104 49.0667 94.7437 50.4 94.7437 52C94.7437 53.5333 94.6104 54.8667 94.3438 56C94.6104 57.0667 94.7437 58.4 94.7437 60C94.7437 61.5333 94.6104 62.8667 94.3438 64C94.6104 65.0667 94.7437 66.4 94.7437 68C94.7437 69.5333 94.6104 70.8667 94.3438 72C94.6104 73.0667 94.7437 74.4 94.7437 76C94.7437 77.5333 94.6104 78.8667 94.3438 80H86.3438C86.0771 78.8667 85.9437 77.5333 85.9437 76C85.9437 74.4 86.0771 73.0667 86.3438 72H83.3438C83.0771 70.8667 82.9438 69.5333 82.9438 68C82.9438 66.4 83.0771 65.0667 83.3438 64H86.3438C86.0771 62.8667 85.9437 61.5333 85.9437 60C85.9437 58.4 86.0771 57.0667 86.3438 56C86.0771 54.8667 85.9437 53.5333 85.9437 52C85.9437 50.4 86.0771 49.0667 86.3438 48C86.0771 46.8667 85.9437 45.5333 85.9437 44C85.9437 42.4 86.0771 41.0667 86.3438 40H94.3438C94.6104 41.0667 94.7437 42.4 94.7437 44C94.7437 45.5333 94.6104 46.8667 94.3438 48ZM134.383 64C134.649 65.0667 134.783 66.4 134.783 68C134.783 69.5333 134.649 70.8667 134.383 72H130.383C130.649 73.0667 130.783 74.4 130.783 76C130.783 77.5333 130.649 78.8667 130.383 80H110.383C110.116 78.8667 109.983 77.5333 109.983 76C109.983 74.4 110.116 73.0667 110.383 72H106.383C106.116 70.8667 105.983 69.5333 105.983 68C105.983 66.4 106.116 65.0667 106.383 64H102.383C102.116 62.8667 101.983 61.5333 101.983 60C101.983 58.4 102.116 57.0667 102.383 56H106.383C106.116 54.8667 105.983 53.5333 105.983 52C105.983 50.4 106.116 49.0667 106.383 48H110.383C110.116 46.8667 109.983 45.5333 109.983 44C109.983 42.4 110.116 41.0667 110.383 40H130.383C130.649 41.0667 130.783 42.4 130.783 44C130.783 45.5333 130.649 46.8667 130.383 48H134.383C134.649 49.0667 134.783 50.4 134.783 52C134.783 53.5333 134.649 54.8667 134.383 56H126.383C126.116 54.8667 125.983 53.5333 125.983 52C125.983 50.4 126.116 49.0667 126.383 48H114.383C114.649 49.0667 114.783 50.4 114.783 52C114.783 53.5333 114.649 54.8667 114.383 56H110.383C110.649 57.0667 110.783 58.4 110.783 60C110.783 61.5333 110.649 62.8667 110.383 64H114.383C114.649 65.0667 114.783 66.4 114.783 68C114.783 69.5333 114.649 70.8667 114.383 72H126.383C126.116 70.8667 125.983 69.5333 125.983 68C125.983 66.4 126.116 65.0667 126.383 64H134.383ZM174.422 72C174.689 73.0667 174.822 74.4 174.822 76C174.822 77.5333 174.689 78.8667 174.422 80H160.422C160.155 78.8667 160.022 77.5333 160.022 76C160.022 74.4 160.155 73.0667 160.422 72H156.422C156.155 70.8667 156.022 69.5333 156.022 68C156.022 66.4 156.155 65.0667 156.422 64H150.422C150.689 65.0667 150.822 66.4 150.822 68C150.822 69.5333 150.689 70.8667 150.422 72C150.689 73.0667 150.822 74.4 150.822 76C150.822 77.5333 150.689 78.8667 150.422 80H142.422C142.155 78.8667 142.022 77.5333 142.022 76C142.022 74.4 142.155 73.0667 142.422 72C142.155 70.8667 142.022 69.5333 142.022 68C142.022 66.4 142.155 65.0667 142.422 64C142.155 62.8667 142.022 61.5333 142.022 60C142.022 58.4 142.155 57.0667 142.422 56C142.155 54.8667 142.022 53.5333 142.022 52C142.022 50.4 142.155 49.0667 142.422 48C142.155 46.8667 142.022 45.5333 142.022 44C142.022 42.4 142.155 41.0667 142.422 40C142.155 38.8667 142.022 37.5333 142.022 36C142.022 34.4 142.155 33.0667 142.422 32C142.155 30.8667 142.022 29.5333 142.022 28C142.022 26.4 142.155 25.0667 142.422 24H150.422C150.689 25.0667 150.822 26.4 150.822 28C150.822 29.5333 150.689 30.8667 150.422 32C150.689 33.0667 150.822 34.4 150.822 36C150.822 37.5333 150.689 38.8667 150.422 40C150.689 41.0667 150.822 42.4 150.822 44C150.822 45.5333 150.689 46.8667 150.422 48C150.689 49.0667 150.822 50.4 150.822 52C150.822 53.5333 150.689 54.8667 150.422 56H156.422C156.155 54.8667 156.022 53.5333 156.022 52C156.022 50.4 156.155 49.0667 156.422 48H160.422C160.155 46.8667 160.022 45.5333 160.022 44C160.022 42.4 160.155 41.0667 160.422 40H172.422C172.689 41.0667 172.822 42.4 172.822 44C172.822 45.5333 172.689 46.8667 172.422 48H164.422C164.689 49.0667 164.822 50.4 164.822 52C164.822 53.5333 164.689 54.8667 164.422 56H160.422C160.689 57.0667 160.822 58.4 160.822 60C160.822 61.5333 160.689 62.8667 160.422 64H164.422C164.689 65.0667 164.822 66.4 164.822 68C164.822 69.5333 164.689 70.8667 164.422 72H174.422ZM214.861 44C214.861 45.5333 214.728 46.8667 214.461 48H211.461C211.728 49.0667 211.861 50.4 211.861 52C211.861 53.5333 211.728 54.8667 211.461 56H208.461C208.728 57.0667 208.861 58.4 208.861 60C208.861 61.5333 208.728 62.8667 208.461 64H206.461C206.728 65.0667 206.861 66.4 206.861 68C206.861 69.5333 206.728 70.8667 206.461 72H203.461C203.728 73.0667 203.861 74.4 203.861 76C203.861 77.5333 203.728 78.8667 203.461 80H201.461C201.728 81.0667 201.861 82.4 201.861 84C201.861 85.5333 201.728 86.8667 201.461 88H197.461C197.728 89.0667 197.861 90.4 197.861 92C197.861 93.5333 197.728 94.8667 197.461 96H185.461C185.194 94.8667 185.061 93.5333 185.061 92C185.061 90.4 185.194 89.0667 185.461 88H193.461C193.194 86.8667 193.061 85.5333 193.061 84C193.061 82.4 193.194 81.0667 193.461 80C193.194 78.8667 193.061 77.5333 193.061 76C193.061 74.4 193.194 73.0667 193.461 72H189.461C189.194 70.8667 189.061 69.5333 189.061 68C189.061 66.4 189.194 65.0667 189.461 64H187.461C187.194 62.8667 187.061 61.5333 187.061 60C187.061 58.4 187.194 57.0667 187.461 56H184.461C184.194 54.8667 184.061 53.5333 184.061 52C184.061 50.4 184.194 49.0667 184.461 48H181.461C181.194 46.8667 181.061 45.5333 181.061 44C181.061 42.4 181.194 41.0667 181.461 40H189.461C189.728 41.0667 189.861 42.4 189.861 44C189.861 45.5333 189.728 46.8667 189.461 48H192.461C192.728 49.0667 192.861 50.4 192.861 52C192.861 53.5333 192.728 54.8667 192.461 56H195.461C195.728 57.0667 195.861 58.4 195.861 60C195.861 61.5333 195.728 62.8667 195.461 64C195.728 65.0667 195.861 66.4 195.861 68C195.861 69.5333 195.728 70.8667 195.461 72H198.461C198.194 70.8667 198.061 69.5333 198.061 68C198.061 66.4 198.194 65.0667 198.461 64H200.461C200.194 62.8667 200.061 61.5333 200.061 60C200.061 58.4 200.194 57.0667 200.461 56H203.461C203.194 54.8667 203.061 53.5333 203.061 52C203.061 50.4 203.194 49.0667 203.461 48H206.461C206.194 46.8667 206.061 45.5333 206.061 44C206.061 42.4 206.194 41.0667 206.461 40H214.461C214.728 41.0667 214.861 42.4 214.861 44ZM294.939 36C294.939 37.5333 294.806 38.8667 294.539 40C294.806 41.0667 294.939 42.4 294.939 44C294.939 45.5333 294.806 46.8667 294.539 48H290.539C290.806 49.0667 290.939 50.4 290.939 52C290.939 53.5333 290.806 54.8667 290.539 56H270.539C270.806 57.0667 270.939 58.4 270.939 60C270.939 61.5333 270.806 62.8667 270.539 64C270.806 65.0667 270.939 66.4 270.939 68C270.939 69.5333 270.806 70.8667 270.539 72C270.806 73.0667 270.939 74.4 270.939 76C270.939 77.5333 270.806 78.8667 270.539 80H262.539C262.272 78.8667 262.139 77.5333 262.139 76C262.139 74.4 262.272 73.0667 262.539 72C262.272 70.8667 262.139 69.5333 262.139 68C262.139 66.4 262.272 65.0667 262.539 64C262.272 62.8667 262.139 61.5333 262.139 60C262.139 58.4 262.272 57.0667 262.539 56C262.272 54.8667 262.139 53.5333 262.139 52C262.139 50.4 262.272 49.0667 262.539 48C262.272 46.8667 262.139 45.5333 262.139 44C262.139 42.4 262.272 41.0667 262.539 40C262.272 38.8667 262.139 37.5333 262.139 36C262.139 34.4 262.272 33.0667 262.539 32C262.272 30.8667 262.139 29.5333 262.139 28C262.139 26.4 262.272 25.0667 262.539 24H290.539C290.806 25.0667 290.939 26.4 290.939 28C290.939 29.5333 290.806 30.8667 290.539 32H294.539C294.806 33.0667 294.939 34.4 294.939 36ZM286.539 48C286.272 46.8667 286.139 45.5333 286.139 44C286.139 42.4 286.272 41.0667 286.539 40C286.272 38.8667 286.139 37.5333 286.139 36C286.139 34.4 286.272 33.0667 286.539 32H270.539C270.806 33.0667 270.939 34.4 270.939 36C270.939 37.5333 270.806 38.8667 270.539 40C270.806 41.0667 270.939 42.4 270.939 44C270.939 45.5333 270.806 46.8667 270.539 48H286.539ZM334.578 72C334.845 73.0667 334.978 74.4 334.978 76C334.978 77.5333 334.845 78.8667 334.578 80H326.578C326.311 78.8667 326.178 77.5333 326.178 76C326.178 74.4 326.311 73.0667 326.578 72H322.578C322.311 70.8667 322.178 69.5333 322.178 68C322.178 66.4 322.311 65.0667 322.578 64H310.578C310.845 65.0667 310.978 66.4 310.978 68C310.978 69.5333 310.845 70.8667 310.578 72H322.578C322.845 73.0667 322.978 74.4 322.978 76C322.978 77.5333 322.845 78.8667 322.578 80H306.578C306.311 78.8667 306.178 77.5333 306.178 76C306.178 74.4 306.311 73.0667 306.578 72H302.578C302.311 70.8667 302.178 69.5333 302.178 68C302.178 66.4 302.311 65.0667 302.578 64H306.578C306.311 62.8667 306.178 61.5333 306.178 60C306.178 58.4 306.311 57.0667 306.578 56H322.578C322.311 54.8667 322.178 53.5333 322.178 52C322.178 50.4 322.311 49.0667 322.578 48H308.578C308.311 46.8667 308.178 45.5333 308.178 44C308.178 42.4 308.311 41.0667 308.578 40H326.578C326.845 41.0667 326.978 42.4 326.978 44C326.978 45.5333 326.845 46.8667 326.578 48H330.578C330.845 49.0667 330.978 50.4 330.978 52C330.978 53.5333 330.845 54.8667 330.578 56C330.845 57.0667 330.978 58.4 330.978 60C330.978 61.5333 330.845 62.8667 330.578 64C330.845 65.0667 330.978 66.4 330.978 68C330.978 69.5333 330.845 70.8667 330.578 72H334.578ZM374.617 64C374.884 65.0667 375.017 66.4 375.017 68C375.017 69.5333 374.884 70.8667 374.617 72H370.617C370.884 73.0667 371.017 74.4 371.017 76C371.017 77.5333 370.884 78.8667 370.617 80H350.617C350.351 78.8667 350.217 77.5333 350.217 76C350.217 74.4 350.351 73.0667 350.617 72H346.617C346.351 70.8667 346.217 69.5333 346.217 68C346.217 66.4 346.351 65.0667 346.617 64H342.617C342.351 62.8667 342.217 61.5333 342.217 60C342.217 58.4 342.351 57.0667 342.617 56H346.617C346.351 54.8667 346.217 53.5333 346.217 52C346.217 50.4 346.351 49.0667 346.617 48H350.617C350.351 46.8667 350.217 45.5333 350.217 44C350.217 42.4 350.351 41.0667 350.617 40H370.617C370.884 41.0667 371.017 42.4 371.017 44C371.017 45.5333 370.884 46.8667 370.617 48H374.617C374.884 49.0667 375.017 50.4 375.017 52C375.017 53.5333 374.884 54.8667 374.617 56H366.617C366.351 54.8667 366.217 53.5333 366.217 52C366.217 50.4 366.351 49.0667 366.617 48H354.617C354.884 49.0667 355.017 50.4 355.017 52C355.017 53.5333 354.884 54.8667 354.617 56H350.617C350.884 57.0667 351.017 58.4 351.017 60C351.017 61.5333 350.884 62.8667 350.617 64H354.617C354.884 65.0667 355.017 66.4 355.017 68C355.017 69.5333 354.884 70.8667 354.617 72H366.617C366.351 70.8667 366.217 69.5333 366.217 68C366.217 66.4 366.351 65.0667 366.617 64H374.617ZM414.656 72C414.923 73.0667 415.056 74.4 415.056 76C415.056 77.5333 414.923 78.8667 414.656 80H400.656C400.39 78.8667 400.256 77.5333 400.256 76C400.256 74.4 400.39 73.0667 400.656 72H396.656C396.39 70.8667 396.256 69.5333 396.256 68C396.256 66.4 396.39 65.0667 396.656 64H390.656C390.923 65.0667 391.056 66.4 391.056 68C391.056 69.5333 390.923 70.8667 390.656 72C390.923 73.0667 391.056 74.4 391.056 76C391.056 77.5333 390.923 78.8667 390.656 80H382.656C382.39 78.8667 382.256 77.5333 382.256 76C382.256 74.4 382.39 73.0667 382.656 72C382.39 70.8667 382.256 69.5333 382.256 68C382.256 66.4 382.39 65.0667 382.656 64C382.39 62.8667 382.256 61.5333 382.256 60C382.256 58.4 382.39 57.0667 382.656 56C382.39 54.8667 382.256 53.5333 382.256 52C382.256 50.4 382.39 49.0667 382.656 48C382.39 46.8667 382.256 45.5333 382.256 44C382.256 42.4 382.39 41.0667 382.656 40C382.39 38.8667 382.256 37.5333 382.256 36C382.256 34.4 382.39 33.0667 382.656 32C382.39 30.8667 382.256 29.5333 382.256 28C382.256 26.4 382.39 25.0667 382.656 24H390.656C390.923 25.0667 391.056 26.4 391.056 28C391.056 29.5333 390.923 30.8667 390.656 32C390.923 33.0667 391.056 34.4 391.056 36C391.056 37.5333 390.923 38.8667 390.656 40C390.923 41.0667 391.056 42.4 391.056 44C391.056 45.5333 390.923 46.8667 390.656 48C390.923 49.0667 391.056 50.4 391.056 52C391.056 53.5333 390.923 54.8667 390.656 56H396.656C396.39 54.8667 396.256 53.5333 396.256 52C396.256 50.4 396.39 49.0667 396.656 48H400.656C400.39 46.8667 400.256 45.5333 400.256 44C400.256 42.4 400.39 41.0667 400.656 40H412.656C412.923 41.0667 413.056 42.4 413.056 44C413.056 45.5333 412.923 46.8667 412.656 48H404.656C404.923 49.0667 405.056 50.4 405.056 52C405.056 53.5333 404.923 54.8667 404.656 56H400.656C400.923 57.0667 401.056 58.4 401.056 60C401.056 61.5333 400.923 62.8667 400.656 64H404.656C404.923 65.0667 405.056 66.4 405.056 68C405.056 69.5333 404.923 70.8667 404.656 72H414.656Z" transform="translate(-25 -24)" fill="white"/>
</svg>
